<svg version="1.1" xmlns="http://www.w3.org/2000/svg" xmlns:xlink="http://www.w3.org/1999/xlink" width="300" height="300" viewBox="0,0,300,300"><g fill="none" fill-rule="nonzero" stroke="none" stroke-width="none" stroke-linecap="butt" stroke-linejoin="miter" stroke-miterlimit="10" stroke-dasharray="" stroke-dashoffset="0" font-family="none" font-weight="none" font-size="none" text-anchor="none" style="mix-blend-mode: normal"><path d="M0,300v-300h300v300z" fill="#404040" stroke="#404040" stroke-width="1"></path><path d="M150,210c0,0 -18.91179,16.52832 -30,20c-12.04848,3.77234 -28.51876,4.65756 -40,0c-12.0351,-4.88224 -23.18176,-17.73757 -30,-30c-14.61092,-26.27737 -12.52859,-84.71142 0,-110c3.82948,-7.72969 9.41478,-14.949 15,-20c3.14748,-2.84643 6.20562,-5.01796 10,-7c8.40462,-4.39024 21.60675,-8.60817 32,-8c9.56491,0.5597 19.18973,4.90723 28,10c38.1315,22.04188 59.48622,165.66212 85,165c26.33799,-0.68351 70,-180 70,-180" fill="none" stroke="#ffff00" stroke-width="25"></path></g></svg>